<svg height="512pt" viewBox="-9 0 512 512" width="512pt" xmlns="http://www.w3.org/2000/svg"><path d="m176.195312 351.964844c-4.359374 0-7.894531-3.535156-7.894531-7.894532v-54.359374c0-4.359376 3.535157-7.894532 7.894531-7.894532 4.359376 0 7.894532 3.535156 7.894532 7.894532v54.359374c0 4.359376-3.535156 7.894532-7.894532 7.894532zm0 0" fill="#f4af9d"/><path d="m481.710938 454.023438v57.976562h-268.726563l14.527344-57.976562c0-24.910157 20.191406-45.101563 45.09375-45.101563h164.003906c24.910156 0 45.101563 20.191406 45.101563 45.101563zm0 0" fill="#3b485b"/><path d="m481.710938 454.023438v57.976562h-238.746094v-57.976562c0-24.910157 20.191406-45.101563 45.101562-45.101563h148.542969c24.910156 0 45.101563 20.191406 45.101563 45.101563zm0 0" fill="#515f75"/><path d="m273.878906 408.925781-2.738281 69.359375 29.15625 7.289063-26.175781 26.175781h160.980468l-26.175781-26.175781 29.15625-7.289063-2.738281-69.359375" fill="#3b485b"/><path d="m410.191406 408.925781-29.363281 103.070313h-52.425781l-29.367188-103.070313" fill="#f2f2f2"/><path d="m318.691406 434.230469 35.921875 44.964843 35.566407-44.796874-35.566407-6.644532z" fill="#f74866"/><path d="m315.535156 466.832031 39.078125-39.078125 39.078125 39.078125 16.5-57.90625h-111.15625zm0 0" fill="#e6e6e6"/><path d="m388.023438 351.019531v57.910157l-33.410157 18.824218-10.320312-5.8125-23.089844-13.011718v-57.949219l23.089844.011719zm0 0" fill="#f9c2af"/><path d="m328.582031 511.996094 26.03125-32.800782 26.214844 32.800782" fill="#f74866"/><path d="m344.292969 350.992188-23.089844-.011719v57.949219l23.089844 13.011718v-26.796875c3.410156.335938 6.867187.527344 10.367187.527344 11.664063 0 22.886719-1.902344 33.367188-5.417969v-39.234375zm0 0" fill="#ea9e8f"/><path d="m249.78125 290.046875c-17.394531 0-31.5-12.625-31.5-28.199219 0-15.574218 14.105469-28.199218 31.5-28.199218h209.761719c17.394531 0 31.5 12.625 31.5 28.199218 0 15.574219-14.105469 28.199219-31.5 28.199219" fill="#ea9e8f"/><path d="m459.546875 171.9375v104.886719c0 57.917969-46.960937 104.875-104.886719 104.875-28.957031 0-55.1875-11.738281-74.160156-30.714844-18.976562-18.976563-30.71875-45.207031-30.71875-74.160156v-104.886719zm0 0" fill="#f9c2af"/><path d="m353.917969 381.695312c-28.671875-.191406-54.59375-11.890624-73.417969-30.710937-18.980469-18.984375-30.71875-45.199219-30.71875-74.164063v-104.882812h47.21875v104.882812c0 28.964844 6.449219 55.179688 16.886719 74.164063 10.273437 18.6875 24.402343 30.347656 40.03125 30.710937zm0 0" fill="#ea9e8f"/><path d="m391.972656 275.679688c-3.84375 0-6.957031-3.117188-6.957031-6.957032v-14.574218c0-3.84375 3.113281-6.957032 6.957031-6.957032 3.839844 0 6.953125 3.113282 6.953125 6.957032v14.574218c0 3.839844-3.113281 6.957032-6.953125 6.957032zm0 0" fill="#293544"/><path d="m317.351562 275.679688c-3.839843 0-6.957031-3.117188-6.957031-6.957032v-14.574218c0-3.84375 3.117188-6.957032 6.957031-6.957032 3.84375 0 6.957032 3.113282 6.957032 6.957032v14.574218c0 3.839844-3.113282 6.957032-6.957032 6.957032zm0 0" fill="#293544"/><path d="m459.546875 171.9375v26.28125c-7.191406 5.148438-15.789063 9.664062-26 13.347656-38.003906 13.691406-74.796875 9.082032-100.8125 1.828125 0 0-.011719 0-.011719-.007812-22.667968-6.308594-37.152344-14.636719-37.152344-14.636719s-9.5625 46.03125-45.789062 46.03125v-72.84375zm0 0" fill="#ea9e8f"/><path d="m433.546875 200.4375c-38.003906 13.695312-74.796875 9.082031-100.816406 1.832031 0 0-.011719 0-.011719-.011719-22.65625-6.3125-37.144531-14.640624-37.144531-14.640624s-9.566407 46.03125-45.792969 46.03125c0 0-24.101562-42.632813-23.34375-82.074219.390625-20.457031 17.257812-35.753907 36.425781-35.753907 3.582031 0 7.246094.527344 10.890625 1.667969 10.265625-27.570312 37.390625-45.019531 66.757813-43.230469 4.574219.28125 9.175781.644532 13.792969 1.0625.882812.074219 1.777343.15625 2.660156.238282.09375.011718.183594.019531.273437.027344 47.933594 4.5 96.488281 13.265624 125.015625-18.296876 0 0 47.152344 108.617188-48.707031 143.148438zm0 0" fill="#515f75"/><path d="m340.511719 74.257812c4.574219.28125 9.175781.644532 13.792969 1.0625-42.292969-1.785156-75.898438 91.359376-21.585938 126.941407-22.65625-6.316407-37.144531-14.644531-37.144531-14.644531s-9.566407 46.03125-45.792969 46.03125c0 0-24.101562-42.628907-23.34375-82.074219.390625-20.453125 17.257812-35.753907 36.425781-35.753907 3.582031 0 7.246094.53125 10.890625 1.667969 10.265625-27.570312 37.390625-45.019531 66.757813-43.230469zm0 0" fill="#3b485b"/><path d="m357.257812 75.59375c-.101562-.015625-.191406-.027344-.292968-.035156.09375.007812.183594.015625.273437.027344zm0 0" fill="#f4af9d"/><path d="m354.660156 331.410156c-11.097656 0-22.199218-4.222656-30.648437-12.675781-2.714844-2.714844-2.714844-7.117187 0-9.835937 2.71875-2.714844 7.121093-2.714844 9.839843 0 11.472657 11.476562 30.148438 11.476562 41.621094 0 2.71875-2.714844 7.121094-2.714844 9.839844 0 2.714844 2.71875 2.714844 7.121093 0 9.835937-8.453125 8.453125-19.550781 12.675781-30.652344 12.675781zm0 0" fill="#e06e86"/><path d="m227.507812 344.074219v49.34375h-59.207031v-49.34375c0-5.453125 4.421875-9.863281 9.863281-9.863281h39.480469c5.441407 0 9.863281 4.410156 9.863281 9.863281zm0 0" fill="#f4af9d"/><path d="m227.507812 344.074219v49.34375h-35.34375v-49.34375c0-5.453125 4.410157-9.863281 9.863282-9.863281h15.617187c5.441407 0 9.863281 4.410156 9.863281 9.863281zm0 0" fill="#f9c2af"/><path d="m168.300781 393.414062h59.207031v118.300782h-59.207031zm0 0" fill="#515f75"/><path d="m168.300781 393.414062h23.683594v118.300782h-23.683594zm0 0" fill="#3b485b"/><path d="m168.820312 167.617188v48.34375c0 14.472656-10.933593 26.386718-25.007812 27.933593-1.019531.117188-2.0625.179688-3.117188.179688h-20.441406c-15.535156 0-28.125-12.589844-28.125-28.113281v-48.34375zm0 0" fill="#3b485b"/><path d="m168.820312 167.617188v48.34375c0 14.472656-10.933593 26.386718-25.007812 27.933593-14.074219-1.535156-25.019531-13.460937-25.019531-27.933593v-48.34375zm0 0" fill="#515f75"/><path d="m203.929688 130.46875c0 26.515625-14.050782 49.757812-35.113282 62.671875h-76.691406c-21.070312-12.914063-35.121094-36.15625-35.121094-62.671875 0-40.574219 32.890625-73.46875 73.46875-73.46875 6.726563 0 13.230469.90625 19.417969 2.601562 31.148437 8.503907 54.039063 37.015626 54.039063 70.867188zm0 0" fill="#eaad18"/><g fill="#ffc627"><path d="m203.933594 130.46875c0 26.515625-14.050782 49.757812-35.113282 62.671875h-37.859374c-21.074219-12.914063-35.125-36.15625-35.125-62.671875 0-33.859375 22.902343-62.363281 54.058593-70.867188 31.148438 8.503907 54.039063 37.019532 54.039063 70.867188zm0 0"/><path d="m29.910156 138.363281h-22.015625c-4.359375 0-7.894531-3.53125-7.894531-7.894531 0-4.359375 3.535156-7.890625 7.894531-7.890625h22.015625c4.363282 0 7.894532 3.53125 7.894532 7.890625 0 4.363281-3.53125 7.894531-7.894532 7.894531zm0 0"/><path d="m217.566406 88.085938c-2.730468 0-5.382812-1.414063-6.84375-3.949219-2.179687-3.773438-.886718-8.601563 2.886719-10.78125l19.066406-11.007813c3.777344-2.179687 8.605469-.890625 10.785157 2.886719 2.179687 3.777344.886718 8.605469-2.890626 10.785156l-19.066406 11.007813c-1.242187.71875-2.601562 1.058594-3.9375 1.058594zm0 0"/><path d="m24.324219 199.652344c-2.730469 0-5.382813-1.414063-6.84375-3.945313-2.179688-3.777343-.886719-8.605469 2.890625-10.785156l19.066406-11.007813c3.773438-2.179687 8.601562-.886718 10.78125 2.890626 2.179688 3.773437.886719 8.601562-2.886719 10.78125l-19.066406 11.007812c-1.246094.71875-2.601563 1.058594-3.941406 1.058594zm0 0"/><path d="m180.742188 51.277344c-1.339844 0-2.695313-.339844-3.9375-1.058594-3.777344-2.179688-5.070313-7.007812-2.890626-10.78125l11.007813-19.066406c2.179687-3.777344 7.007813-5.070313 10.785156-2.890625 3.773438 2.179687 5.066407 7.007812 2.886719 10.785156l-11.007812 19.066406c-1.460938 2.53125-4.113282 3.945313-6.84375 3.945313zm0 0"/><path d="m130.46875 37.804688c-4.359375 0-7.890625-3.535157-7.890625-7.894532v-22.015625c0-4.359375 3.53125-7.894531 7.890625-7.894531 4.363281 0 7.894531 3.535156 7.894531 7.894531v22.015625c0 4.363282-3.53125 7.894532-7.894531 7.894532zm0 0"/><path d="m80.199219 51.277344c-2.730469 0-5.382813-1.414063-6.84375-3.945313l-11.007813-19.066406c-2.179687-3.777344-.886718-8.605469 2.886719-10.785156 3.777344-2.179688 8.605469-.886719 10.785156 2.890625l11.007813 19.066406c2.179687 3.773438.886718 8.601562-2.890625 10.78125-1.242188.71875-2.597657 1.058594-3.9375 1.058594zm0 0"/><path d="m43.375 88.085938c-1.335938 0-2.695312-.339844-3.9375-1.058594l-19.066406-11.007813c-3.777344-2.179687-5.070313-7.007812-2.890625-10.785156 2.179687-3.773437 7.007812-5.070313 10.785156-2.886719l19.066406 11.007813c3.773438 2.179687 5.066407 7.007812 2.886719 10.78125-1.460938 2.535156-4.113281 3.949219-6.84375 3.949219zm0 0"/><path d="m253.046875 138.363281h-22.015625c-4.359375 0-7.894531-3.53125-7.894531-7.894531 0-4.359375 3.535156-7.890625 7.894531-7.890625h22.015625c4.359375 0 7.894531 3.53125 7.894531 7.890625 0 4.363281-3.535156 7.894531-7.894531 7.894531zm0 0"/><path d="m236.617188 199.652344c-1.339844 0-2.695313-.339844-3.941407-1.058594l-19.066406-11.007812c-3.773437-2.179688-5.066406-7.007813-2.886719-10.78125 2.179688-3.777344 7.007813-5.070313 10.78125-2.890626l19.066406 11.007813c3.777344 2.179687 5.070313 7.007813 2.890626 10.785156-1.460938 2.53125-4.117188 3.945313-6.84375 3.945313zm0 0"/></g><path d="m155.144531 139.386719v53.753906h-15.789062v-53.753906c0-4.359375 3.535156-7.894531 7.894531-7.894531 4.367188 0 7.894531 3.535156 7.894531 7.894531zm0 0" fill="#fff"/><path d="m121.578125 139.386719v53.753906h-15.789063v-53.753906c0-4.359375 3.535157-7.894531 7.894532-7.894531 4.367187 0 7.894531 3.535156 7.894531 7.894531zm0 0" fill="#fff"/></svg>