<svg id="_x33_0" enable-background="new 0 0 64 64" height="512" viewBox="0 0 64 64" width="512" xmlns="http://www.w3.org/2000/svg"><g><path d="m60.746 36.16c-1.892-14.734-14.506-26.16-29.746-26.16v4.022c13.828.413 25.536 9.332 29.746 22.138z"/><path d="m30.609 31.977 6.81-6.81c-.508-.215-1.021-.421-1.538-.618-2.179-.833-4.651-.317-6.32 1.306-.008.008-.016.017-.024.024l-3.215 3.215.678.905c.861 1.148 2.189 1.864 3.609 1.978z"/><path d="m25.4 31.199-.508-.677-21.892 21.892c0 1.978 1.608 3.586 3.586 3.586l22.331-22.332c-1.386-.435-2.63-1.286-3.517-2.469z"/><path d="m31 16.022v6.32c0 .102-.003.202-.009.303.882-.322 1.817-.489 2.759-.489.956 0 1.918.172 2.842.523 9.891 3.767 18.132 10.693 23.544 19.691l-.08-.526c-2.219-14.643-14.357-25.354-29.056-25.822z"/><path d="m20.606 55.257c1.438 1.673 2.513 3.629 3.154 5.743h3.075c-.179-1.116-.427-2.213-.748-3.287-1.623-1.217-3.5-2.064-5.481-2.456z"/><path d="m47.229 61h4.793c.146-3.439 1.047-6.816 2.633-9.871-3.712 2.089-6.438 5.663-7.426 9.871z"/><path d="m24.582 49.795c2.232 3.368 3.687 7.185 4.283 11.205h5.748l-.336-1.009c-1.569-4.703-5.163-8.422-9.695-10.196z"/><path d="m42.874 52.374c-.419 2.052-.69 4.135-.806 6.235.08.254.18.499.25.757l.446 1.634h2.417c.37-1.794 1.025-3.488 1.906-5.04.216-2.798.859-5.51 1.93-8.085-2.307 1.096-4.392 2.629-6.143 4.499z"/><path d="m42.121 47.329c-1.534 1.148-2.821 2.59-3.831 4.242.821 1.001 1.533 2.088 2.159 3.227.351-2.532.896-5.031 1.672-7.469z"/><path d="m32.468 48.996.207.93c.309 1.388.562 2.803.763 4.212 1.168 1.564 2.102 3.319 2.737 5.22l.546 1.642h3.97l-.302-1.108c-1.226-4.496-4.064-8.368-7.921-10.896z"/></g></svg>