<svg id="Capa_1" enable-background="new 0 0 512 512" height="512" viewBox="0 0 512 512" width="512" xmlns="http://www.w3.org/2000/svg"><g><path d="m316 180c57.891 0 105-47.109 105-105v-45h-30v15c0 8.276-6.724 15-15 15-33.085 0-62.289 15.69-81.55 39.684-14.584-40.484-53.007-69.684-98.45-69.684-8.276 0-15-6.724-15-15v-15h-30v45c0 57.891 47.109 105 105 105 8.276 0 15 6.724 15 15v78.388c-27.285 3.135-52.798 14.132-73.262 31.851 3.276.601 6.383.981 9.82 1.771 27.437 6.343 45.923 9.301 61.846 9.99l24.097-.029c39.097 0 73.491 24.991 85.576 62.139.674 2.021 1.172 4.072 1.523 6.138.718-.571 22.354-18.08 31.88-25.618-17.646-47.32-60.725-80.815-111.48-86.464v-48.166c0-8.276 6.724-15 15-15z"/><path d="m438.531 348.051c-15.046 11.788-27.561 21.22-36.881 28.759-38.264 30.963-41.375 30.599-74.443 30.19h-116.207v-30h124.969c9.738 0 17.607-9.34 14.592-18.598-7.828-24.034-30.415-41.402-57.061-41.402h-25.38c-17.001-.725-36.709-3.684-67.271-10.752-12.393-2.838-23.064-4.215-33.023-4.248-28.196-.093-50.674 11.266-90.273 30.146-54.747 26.109-68.44 30.922-77.553 35.04v144.814c20.2-6.901 21.521-4.693 71.737-26.06 38.892-16.553 72.437-30.835 114.375-20.845 79.863 19.043 200.248 30.19 316.864-92.285l9.023-9.492s-8.395-10.483-8.5-10.611c-15.728-19.387-45.316-20.051-64.968-4.656z"/><path d="m438.531 348.051c-15.046 11.788-27.561 21.22-36.881 28.759-38.264 30.963-41.375 30.599-74.443 30.19h-116.207v-30h124.969c9.738 0 17.607-9.34 14.592-18.598-7.828-24.034-30.415-41.402-57.061-41.402h-25.38c-17.001-.725-36.709-3.684-67.271-10.752-12.393-2.838-23.064-4.215-33.023-4.248-28.196-.093-50.674 11.266-90.273 30.146-54.747 26.109-68.44 30.922-77.553 35.04v144.814c20.2-6.901 21.521-4.693 71.737-26.06 38.892-16.553 72.437-30.835 114.375-20.845 79.863 19.043 200.248 30.19 316.864-92.285l9.023-9.492s-8.395-10.483-8.5-10.611c-15.728-19.387-45.316-20.051-64.968-4.656z"/></g></svg>