<svg height="512" viewBox="0 0 54 60" width="512" xmlns="http://www.w3.org/2000/svg"><g id="033---Cutting-Branch" transform="translate(-1)"><rect id="Rectangle-path" height="15" rx="2" transform="matrix(.5 -.866 .866 .5 -13.972 17.899)" width="7" x="5.015" y="13.549"/><path id="Shape" d="m21.72 25.63-3.72-2.13-2.5 4.33c4.14 2.38 3.83 2.27 4.21 2.23.5765474.7381588 1.1043344 1.5131372 1.58 2.32.6927649-1.3886004 1.4848214-2.7254047 2.37-4-.66-.57-1.22-1-1.63-1.3.2868996-.4908197.1525136-1.1193996-.31-1.45z"/><rect id="Rectangle-path" height="7" rx="2" transform="matrix(.866 -.5 .5 .866 -22.835 10.68)" width="15" x="1.011" y="44.451"/><path id="Shape" d="m41.07 19.13c-5.07 2.16-4.75 1.95-6.29 2.87-3.68 2.13-7.33 4.39-9.62 7.74-.9875137 1.5421186-1.8824273 3.1416097-2.68 4.79-.7587477 1.5794099-1.6768461 3.0771836-2.74 4.47-.42 0-.06-.18-4.22 2.22l2.48 4.28 3.7-2.13c.4678015-.3519796.5893175-1.0029581.28-1.5l.06.08c2.7663816-2.1004028 5.1974735-4.6090468 7.21-7.44 3.79-5.22-.2-2.31 13-9.93l12-6.91c-4.4470461-.5522457-8.9616347-.0521471-13.18 1.46z"/><path id="Shape" d="m30.46 36.25c-1.22737 1.6523599-2.5886301 3.2009186-4.07 4.63 2.24 2.6 7.62 5.89 10.46 7.25-.4962385 2.525438-1.2157301 5.0018279-2.15 7.4-.4065342.8321895-.3196769 1.8209408.2257194 2.5695075.5453964.7485668 1.4599492 1.1342695 2.3766849 1.002341.9167356-.1319284 1.6854142-.7598668 1.9975957-1.6318485.9863105-2.4016401 1.7625501-4.8842687 2.32-7.42 4.0493719 1.37305 8.3572339 1.8106741 12.6 1.28l-11.6-6.7c.823927-5.9482706.823927-11.9817294 0-17.93l-4.76 2.75c.4167989 4.1261678.4167989 8.2838322 0 12.41-7.06-4.05-5.61-2.97-7.4-5.61z"/><path id="Shape" d="m31.69 14.16c-2-5.58-11.95-9.45-15.79-6.32-.11 2.52 2.39 5.67 6.26 7.61 3.61 1.8 7.33 2 9.4.72 1.1320354.1451091 2.2779646.1451091 3.41 0 .33 1 .65 2 .92 3l4.54-1.92c.16 0 .11 0 0-.27-.49-5.34 7.57-9.17 7.57-9.2.8987638-.30017907 1.5505708-1.08268541 1.6833581-2.02090256.1327873-.93821716-.2762706-1.87086934-1.056434-2.40866954-.7801633-.5378002-1.7973251-.58830272-2.6269241-.1304279-3.1594812 1.49954626-5.9414086 3.69022867-8.14 6.41-1.0722953-2.52729085-2.2944681-4.98833274-3.66-7.37-.4313653-.79816332-1.2612971-1.29997876-2.168499-1.31117557-.9072019-.0111968-1.749266.46998265-2.2001989 1.25725653-.450933.78727388-.4399497 1.75705987.0286979 2.53391904 1.7386451 3.03720782 3.2269034 6.2110439 4.45 9.49-.8732444.0732873-1.7519147.0498114-2.62-.07z"/></g></svg>