<svg height="512" viewBox="0 0 59 59" width="512" xmlns="http://www.w3.org/2000/svg"><g id="001---Gardening"><path id="Shape" d="m30.741 59h18.518c.5028868.0001136.9276305-.3732498.992-.872l2.987-23.128h-26.476l2.987 23.128c.0643695.4987502.4891132.8721136.992.872z"/><path id="Shape" d="m26.535 15.856c1.8525078 1.1617607 4.0083136 1.7471765 6.194 1.682 1.6994061-.0135243 3.3891316-.2574126 5.023-.725.6056287 1.5556295 1.0089287 3.1826089 1.2 4.841l.034 2.346h-13.986c-.2877659-.0001023-.5616282.1237682-.7515703.3399422-.1899421.2161741-.2775515.5036963-.2404297.7890578l.911 7c.06478.4979758.4888284.8706763.991.871h28.18c.5021716-.0003237.92622-.3730242.991-.871l.911-7c.0371218-.2853615-.0504876-.5728837-.2404297-.7890578-.1899421-.216174-.4638044-.3400445-.7515703-.3399422h-14l.048-2.342c.182093-1.6609733.5856759-3.290103 1.2-4.844 1.6337034.4666423 3.3230148.710183 5.022.724 2.1856864.0651765 4.3414922-.5202393 6.194-1.682 4.8-3.213 5.5-10.612 5.531-10.926.0013848-.06064934-.0033052-.12128499-.014-.181-.0009348-.03979588-.0039389-.0795162-.009-.119-.0254104-.11955343-.0725224-.23343571-.139-.336v-.008c-.01-.015-.026-.022-.036-.036-.0608113-.08146754-.1332498-.15356916-.215-.214-.0376681-.02398174-.076738-.04568722-.117-.065-.0399696-.02681408-.0821173-.05022944-.126-.07-.288-.1-7.12-2.495-11.94.732-4.334 2.9-5.325 9.2-5.5 10.63-.4109422.5632167-.7159145 1.1965425-.9 1.869-.1853057-.6747742-.4901314-1.3108438-.9-1.878-.175-1.442-1.171-7.724-5.5-10.621-4.815-3.226-11.647-.833-11.936-.733-.0438039.01992716-.085939.04333554-.126.07-.0400498.01910022-.0788001.04081375-.116.065-.0824873.0599062-.1553291.13207356-.216.214-.01.014-.026.021-.036.036v.008c-.0664776.10256429-.1135896.21644657-.139.336-.0050611.0394838-.0080652.07920412-.009.119-.0131114.05980464-.0201471.12078092-.021.182.032.314.736 7.713 5.535 10.926zm3.465 13.144h-2c-.5522847 0-1-.4477153-1-1s.4477153-1 1-1h2c.5522847 0 1 .4477153 1 1s-.4477153 1-1 1zm11-2c.5522847 0 1 .4477153 1 1s-.4477153 1-1 1h-7c-.5522847 0-1-.4477153-1-1s.4477153-1 1-1z"/><path id="Shape" d="m8 21.46c1.23696994.7141659 2.7608888.7145572 3.9982253.0010265 1.2373364-.7135307 2.0003105-2.0326969 2.0017747-3.4610265v-14c0-2.209139-1.790861-4-4-4s-4 1.790861-4 4v14c-.00267818 1.4287069.76063428 2.7492375 2 3.46zm2-18.46c.5522847 0 1 .44771525 1 1s-.4477153 1-1 1c-.55228475 0-1-.44771525-1-1s.44771525-1 1-1z"/><path id="Shape" d="m8 23.65v3.44c.00765403.0080001.01132315.0190075.01.03.55 5.5 1.44 8.17 1.99 8.79.55-.62 1.44-3.29 1.99-8.79-.0013232-.0109925.002346-.0219999.01-.03v-3.44c-1.2924958.4666907-2.70750421.4666907-4 0z"/><path id="Shape" d="m10 58c5 0 10-14.8 10-22.143 0-5.5-2.519-7.734-6.109-8.5-1.012 10.643-3.029 10.643-3.891 10.643s-2.879 0-3.891-10.648c-3.59.771-6.109 3-6.109 8.5 0 7.348 5 22.148 10 22.148z"/></g></svg>